Coordinates
version=1
nRows=6
nColumns=34
inDegrees=yes

Units are S.I. units (second, meters, Newtons, ...)
If the header above contains a line with 'inDegrees', this indicates whether rotational values are in degrees (yes) or radians (no).

endheader
time	pelvis_tilt	pelvis_list	pelvis_rotation	pelvis_tx	pelvis_ty	pelvis_tz	hip_flexion_r	hip_adduction_r	hip_rotation_r	knee_angle_r	ankle_angle_r	subtalar_angle_r	mtp_angle_r	hip_flexion_l	hip_adduction_l	hip_rotation_l	knee_angle_l	ankle_angle_l	subtalar_angle_l	mtp_angle_l	lumbar_extension	lumbar_bending	lumbar_rotation	arm_flex_r	arm_add_r	arm_rot_r	elbow_flex_r	pro_sup_r	arm_flex_l	arm_add_l	arm_rot_l	elbow_flex_l	pro_sup_l
      2.04000000	      1.15205707	     -1.42432057	      6.22549387	      0.30184503	      0.92368147	     -0.23140859	     -5.07390797	      7.57297997	     -2.00735483	     -7.70754981	      9.23915783	     -3.56624085	      2.21651947	     22.57078581	     -0.79282374	     -0.42254253	    -39.99785125	      1.37067513	    -10.00863521	     28.75984291	     -7.34986358	      3.51240901	      2.40477254	     -4.99016492	    -20.73591102	      5.00505112	     36.79172412	     90.00000000	     -6.11731125	    -15.32154569	     14.83807745	     20.11667779	     90.00000000
      2.05000000	      1.35888515	     -1.34160331	      6.25498231	      0.31340921	      0.92284010	     -0.23183690	     -6.54464365	      7.57425923	     -2.16278302	     -6.90005213	      9.75945187	     -3.02992449	      1.19603244	     22.82156478	     -0.68595941	     -0.67338693	    -37.00224464	      2.33907187	    -10.02259821	     19.72753720	     -7.68586496	      3.41619493	      2.61593630	     -4.63534628	    -20.90533379	      5.13060255	     37.10493169	     90.00000000	     -6.31164383	    -15.21159225	     14.04324794	     19.96781931	     90.00000000
      2.06000000	      1.45076364	     -1.30192923	      6.12216093	      0.32489315	      0.92153850	     -0.23208054	     -7.86173513	      7.59412372	     -2.01098825	     -6.13236279	     10.08875418	     -2.75816338	      1.29324766	     23.11872579	     -0.67541281	     -1.19555605	    -33.74395543	      1.92323994	    -10.68273460	     19.46229171	     -7.89451587	      3.35459916	      3.00257939	     -4.36082779	    -21.05933943	      5.10083889	     37.48938168	     90.00000000	     -6.51101442	    -15.19360059	     13.85600051	     19.90414260	     90.00000000
      2.07000000	      1.84904197	     -1.14204603	      6.10094642	      0.33664366	      0.92055405	     -0.23270086	     -9.54183189	      7.51201376	     -2.05614586	     -5.37618858	     10.50478823	     -2.39067021	      1.48110177	     22.88249736	     -0.46035531	     -1.48810799	    -30.20196701	      1.33257082	    -11.70637591	     18.90957119	     -8.46557523	      3.21686111	      3.26676628	     -4.03460618	    -21.23990044	      5.19342345	     37.81073850	     90.00000000	     -6.60727490	    -15.09786019	     13.70630377	     19.61966913	     90.00000000
      2.08000000	      1.69388129	     -1.49251999	      6.16691418	      0.34825413	      0.91827245	     -0.23321583	    -10.35170396	      7.95184493	     -2.16937193	     -5.03239412	     10.93681413	     -2.32899017	      1.56600412	     23.51161932	     -0.74164825	     -1.80118369	    -27.07724654	      1.34982136	    -11.62233110	     18.82145402	     -8.31572575	      3.56973295	      3.46949337	     -3.82826149	    -21.41280381	      5.15223842	     38.12084181	     90.00000000	     -6.92941922	    -15.02449731	     13.63594302	     19.73488579	     90.00000000
      2.09000000	      2.29800295	     -1.21163770	      6.04449664	      0.36020980	      0.91737742	     -0.23382665	    -12.25562150	      7.71609333	     -1.94891725	     -4.32293414	     11.30937888	     -1.83505629	      1.60473842	     22.83106775	     -0.43671088	     -2.21873014	    -23.33824611	      0.90865053	    -11.77420121	     17.99564468	     -9.12989394	      3.31419379	      3.82661885	     -3.50143992	    -21.58161170	      5.33402807	     38.42769773	     90.00000000	     -6.74908430	    -14.87728611	     13.44857584	     18.98275745	     90.00000000
